<svg xmlns="http://www.w3.org/2000/svg" id="Layer_1" data-name="Layer 1" viewBox="10 12 160 48" width="166" height="49" style="margin-top: 16px;"><defs><style>.cls-1{fill:#fffffb;}.cls-2{fill:#fff;}.cls-3{fill:#f05027;}.cls-4{fill:#32a0da;}.cls-5{fill:#81ba41;}.cls-6{fill:#fdb813;}</style></defs><path class="cls-1" d="M169.5,19.7V50.29A7.8,7.8,0,0,1,161.62,58H18.38a7.81,7.81,0,0,1-7.88-7.71V19.7A7.81,7.81,0,0,1,18.38,12H161.62a7.8,7.8,0,0,1,7.88,7.7"></path><path class="cls-1" d="M65.88,23.3A3.23,3.23,0,0,1,65,25.67a3.36,3.36,0,0,1-2.57,1,3.49,3.49,0,0,1-2.58-1.07,3.82,3.82,0,0,1,0-5.28,3.45,3.45,0,0,1,2.58-1.07,3.71,3.71,0,0,1,1.45.28,2.86,2.86,0,0,1,1.13.78l-.65.66a2.11,2.11,0,0,0-.83-.63,2.88,2.88,0,0,0-1.1-.22A2.6,2.6,0,0,0,60.5,21a3,3,0,0,0,0,4.06,2.77,2.77,0,0,0,3.68.21,2.39,2.39,0,0,0,.8-1.63H62.44v-.86h3.39a3.39,3.39,0,0,1,0,.54"></path><polygon class="cls-1" points="71.25 19.46 71.25 20.33 68.06 20.33 68.06 22.58 70.94 22.58 70.94 23.44 68.06 23.44 68.06 25.69 71.25 25.69 71.25 26.56 67.16 26.56 67.16 19.46 71.25 19.46"></polygon><polygon class="cls-1" points="75.04 20.33 75.04 26.56 74.14 26.56 74.14 20.33 72.19 20.33 72.19 19.46 76.99 19.46 76.99 20.33 75.04 20.33"></polygon><rect class="cls-1" x="80.47" y="19.46" width="0.9" height="7.1"></rect><polygon class="cls-1" points="85.36 20.33 85.36 26.56 84.46 26.56 84.46 20.33 82.5 20.33 82.5 19.46 87.31 19.46 87.31 20.33 85.36 20.33"></polygon><path class="cls-1" d="M97.44,23a3.64,3.64,0,0,1-1,2.64,3.6,3.6,0,0,1-5.12,0,3.9,3.9,0,0,1,0-5.28,3.59,3.59,0,0,1,5.12,0,3.62,3.62,0,0,1,1,2.63m-6.27,0a2.81,2.81,0,0,0,.76,2,2.66,2.66,0,0,0,3.82,0,3.06,3.06,0,0,0,0-4.06,2.66,2.66,0,0,0-3.82,0,2.81,2.81,0,0,0-.76,2"></path><polygon class="cls-1" points="99.6 26.56 98.7 26.56 98.7 19.46 99.79 19.46 103.19 24.98 103.23 24.98 103.19 23.62 103.19 19.46 104.09 19.46 104.09 26.56 103.15 26.56 99.6 20.77 99.56 20.77 99.6 22.14 99.6 26.56"></polygon><path class="cls-1" d="M67,36.26,64.22,46.77H61.1L57.72,32.46c.94,0,1.83,0,2.71,0,.11,0,.26.23.29.38.36,1.55.7,3.12,1,4.68s.66,3,1.1,4.58l2.52-9.64h3.4l2.5,10c.2-.88.37-1.62.53-2.36.51-2.38,1-4.76,1.5-7.14.08-.37.2-.51.59-.49.77,0,1.54,0,2.4,0-.19.84-.37,1.64-.57,2.44q-1,4.16-2,8.33c-.26,1.07-.51,2.15-.79,3.22,0,.13-.21.33-.32.33-.93,0-1.85,0-2.8,0L67,36.27Z"></path><path class="cls-1" d="M125.75,40.29l-1.68,6.51c-.8,0-1.61,0-2.41,0a.4.4,0,0,1-.3-.25q-1.56-4.91-3.1-9.83a1.17,1.17,0,0,1,0-.23h2.6l1.86,6.62h.1l.61-2.38c.34-1.32.67-2.64,1-3.95a.55.55,0,0,1,.35-.32c.77,0,1.55,0,2.36,0l1.65,6.61h.12l1.89-6.6h2.65c-.22.75-.44,1.45-.66,2.16-.81,2.54-1.62,5.08-2.41,7.63-.13.42-.3.62-.77.57a7.62,7.62,0,0,0-1.51,0c-.44,0-.57-.15-.67-.54-.48-1.93-1-3.85-1.49-5.78l-.06-.19Z"></path><path class="cls-1" d="M104.72,46.78h-2.46V45.31c-.14.13-.2.17-.25.23a3.83,3.83,0,0,1-6.58-.84,7,7,0,0,1,0-6.36,3.9,3.9,0,0,1,6.29-1l.28.27V32.49h2.67Zm-2.56-5.38a13.4,13.4,0,0,0-.52-1.94,2,2,0,0,0-3.77.2,5.79,5.79,0,0,0-.16,3.42,2.06,2.06,0,0,0,1.92,1.79,2.22,2.22,0,0,0,2.17-1.58A15.2,15.2,0,0,0,102.16,41.4Z"></path><path class="cls-1" d="M112.07,47c-3.28,0-5.29-2.17-5.27-5.63a5.3,5.3,0,1,1,10.59.23A5.2,5.2,0,0,1,112.07,47Zm-2.52-5.33c.09.44.15.95.29,1.43a2.34,2.34,0,0,0,4.47.11,4.61,4.61,0,0,0,.12-2.91,2.38,2.38,0,0,0-4.68.09A12.83,12.83,0,0,0,109.55,41.7Z"></path><path class="cls-1" d="M134,43.85c.83-.13,1.59-.26,2.35-.36a.46.46,0,0,1,.4.15,2.38,2.38,0,0,0,3.22,1.29,1.08,1.08,0,0,0,.85-.78.72.72,0,0,0-.61-.95c-.9-.25-1.83-.44-2.73-.7a10.31,10.31,0,0,1-1.59-.63,2.6,2.6,0,0,1-1.52-2.6,2.71,2.71,0,0,1,1.79-2.61,6.84,6.84,0,0,1,5.22,0,3.11,3.11,0,0,1,1.83,2.26l-2.5.49a2.5,2.5,0,0,0-3.34-1,.91.91,0,0,0-.46.6.82.82,0,0,0,.42.61,14.23,14.23,0,0,0,1.67.56c.84.24,1.69.43,2.51.72a2.69,2.69,0,0,1,2,2.36A3.1,3.1,0,0,1,142,46.28a6.61,6.61,0,0,1-6.54-.19A3.58,3.58,0,0,1,134,43.85Z"></path><path class="cls-1" d="M86,46.78H83.3V36.47h2.55v1.26l.13.06a4.46,4.46,0,0,1,.34-.42,4,4,0,0,1,4.52-.84,2.77,2.77,0,0,1,1.7,2.62c0,2.2,0,4.4,0,6.59,0,.33,0,.65,0,1H89.9v-.58c0-2.06,0-4.12-.08-6.19a2.26,2.26,0,0,0-.29-1c-.53-1-2.15-.92-3,.06a3.43,3.43,0,0,0-.6,2.23c0,1.63,0,3.27,0,4.91Z"></path><path class="cls-1" d="M77.81,36.46h2.66v10.3H77.81Z"></path><path class="cls-1" d="M80.47,32.48V35H77.81v-2.5Z"></path><polygon class="cls-1" points="31.75 22.48 31.75 33.65 21.44 33.65 21.44 24.24 31.75 22.48"></polygon><polygon class="cls-1" points="31.75 34.93 31.75 46.52 21.44 44.51 21.44 34.93 31.75 34.93"></polygon><polygon class="cls-1" points="33.36 33.65 49.53 33.65 49.53 18.77 33.36 21.96 33.36 33.65"></polygon><polygon class="cls-1" points="33.36 34.93 49.67 34.93 49.67 49.82 33.36 46.7 33.36 34.93"></polygon><path d="M169,20V50a7.69,7.69,0,0,1-7.83,7.54H18.83A7.69,7.69,0,0,1,11,50V20a7.69,7.69,0,0,1,7.83-7.53H161.17A7.69,7.69,0,0,1,169,20"></path><path class="cls-2" d="M66,23.55a3.13,3.13,0,0,1-.87,2.32,3.32,3.32,0,0,1-2.55,1,3.65,3.65,0,0,1-2.56-6.21,3.48,3.48,0,0,1,2.56-1.05,3.93,3.93,0,0,1,1.45.27,2.88,2.88,0,0,1,1.11.77l-.64.64a2.16,2.16,0,0,0-.83-.61,2.66,2.66,0,0,0-1.09-.22,2.62,2.62,0,0,0-1.92.79,2.93,2.93,0,0,0,0,4,2.62,2.62,0,0,0,1.92.79,2.59,2.59,0,0,0,1.73-.59,2.36,2.36,0,0,0,.8-1.6H62.61V23H66a3.15,3.15,0,0,1,0,.52"></path><polygon class="cls-2" points="71.37 19.79 71.37 20.65 68.2 20.65 68.2 22.85 71.06 22.85 71.06 23.69 68.2 23.69 68.2 25.89 71.37 25.89 71.37 26.75 67.31 26.75 67.31 19.79 71.37 19.79"></polygon><polygon class="cls-2" points="75.13 20.65 75.13 26.75 74.24 26.75 74.24 20.65 72.3 20.65 72.3 19.79 77.08 19.79 77.08 20.65 75.13 20.65"></polygon><rect class="cls-2" x="80.53" y="19.79" width="0.89" height="6.95"></rect><polygon class="cls-2" points="85.38 20.65 85.38 26.75 84.49 26.75 84.49 20.65 82.55 20.65 82.55 19.79 87.33 19.79 87.33 20.65 85.38 20.65"></polygon><path class="cls-2" d="M97.39,23.27a3.5,3.5,0,0,1-1,2.58,3.61,3.61,0,0,1-5.09,0,3.77,3.77,0,0,1,0-5.16,3.44,3.44,0,0,1,2.55-1.05,3.39,3.39,0,0,1,2.54,1.06,3.49,3.49,0,0,1,1,2.57m-6.23,0a2.78,2.78,0,0,0,.75,2,2.6,2.6,0,0,0,1.91.79,2.52,2.52,0,0,0,1.89-.79,3,3,0,0,0,0-4,2.52,2.52,0,0,0-1.89-.79,2.6,2.6,0,0,0-1.91.79,2.76,2.76,0,0,0-.75,2"></path><polygon class="cls-2" points="99.54 26.74 98.64 26.74 98.64 19.79 99.73 19.79 103.11 25.2 103.15 25.2 103.11 23.86 103.11 19.79 104 19.79 104 26.74 103.07 26.74 99.54 21.08 99.5 21.08 99.54 22.41 99.54 26.74"></polygon><path class="cls-2" d="M67.1,36.24,64.38,46.52h-3.1l-3.36-14c.94,0,1.82,0,2.7,0,.1,0,.25.22.29.36.35,1.53.69,3.06,1,4.58s.66,3,1.09,4.48l2.5-9.42h3.38l2.49,9.75c.19-.86.37-1.59.52-2.31q.77-3.49,1.5-7c.07-.36.2-.5.58-.48.77,0,1.54,0,2.39,0-.2.83-.38,1.61-.57,2.39-.66,2.72-1.32,5.43-2,8.15-.25,1.05-.5,2.1-.78,3.15a.52.52,0,0,1-.32.33c-.92,0-1.84,0-2.78,0L67.19,36.25Z"></path><path class="cls-2" d="M125.52,40.18l-1.67,6.36c-.79,0-1.59,0-2.39,0a.42.42,0,0,1-.3-.25q-1.55-4.8-3.08-9.61c0-.06,0-.13,0-.23h2.59c.61,2.15,1.23,4.31,1.84,6.47h.1c.21-.77.41-1.55.61-2.32.34-1.29.66-2.59,1-3.87a.54.54,0,0,1,.35-.31c.77,0,1.54,0,2.35,0q.82,3.24,1.63,6.46h.13l1.87-6.45h2.64c-.23.73-.44,1.42-.66,2.11-.8,2.49-1.61,5-2.39,7.47-.13.41-.3.6-.77.55a7.52,7.52,0,0,0-1.5,0c-.43,0-.57-.14-.67-.52-.47-1.89-1-3.77-1.48-5.66l-.06-.18Z"></path><path class="cls-2" d="M104.63,46.52h-2.44V45.09a2.66,2.66,0,0,0-.25.22,3.83,3.83,0,0,1-6.54-.82,6.73,6.73,0,0,1,0-6.22,3.9,3.9,0,0,1,6.25-1l.29.26v-5h2.65Zm-2.55-5.26a12.86,12.86,0,0,0-.51-1.9,2,2,0,0,0-3.75.2,5.53,5.53,0,0,0-.16,3.34,2,2,0,0,0,1.91,1.76,2.23,2.23,0,0,0,2.16-1.55A15,15,0,0,0,102.08,41.26Z"></path><path class="cls-2" d="M111.94,46.77c-3.26,0-5.27-2.12-5.24-5.51a5.26,5.26,0,0,1,10.51.22A5.11,5.11,0,0,1,111.94,46.77Zm-2.51-5.21a11.52,11.52,0,0,0,.29,1.39,2.33,2.33,0,0,0,4.43.11,4.33,4.33,0,0,0,.12-2.84,2.3,2.3,0,0,0-2.35-1.85,2.33,2.33,0,0,0-2.29,1.93A12,12,0,0,0,109.43,41.56Z"></path><path class="cls-2" d="M133.68,43.66c.83-.13,1.58-.26,2.34-.36a.52.52,0,0,1,.4.15,2.36,2.36,0,0,0,3.19,1.26,1.06,1.06,0,0,0,.85-.76c.1-.49-.07-.78-.6-.93-.9-.24-1.82-.42-2.72-.68a9.67,9.67,0,0,1-1.57-.62,2.53,2.53,0,0,1-1.52-2.54,2.63,2.63,0,0,1,1.78-2.55,6.88,6.88,0,0,1,5.18,0,3.05,3.05,0,0,1,1.82,2.21l-2.48.48a2.5,2.5,0,0,0-3.32-1,.9.9,0,0,0-.46.58.82.82,0,0,0,.43.6,15.2,15.2,0,0,0,1.65.55c.83.24,1.69.42,2.5.7a2.66,2.66,0,0,1,2,2.31,3.06,3.06,0,0,1-1.52,3,6.66,6.66,0,0,1-6.5-.19A3.54,3.54,0,0,1,133.68,43.66Z"></path><path class="cls-2" d="M86,46.52H83.34V36.44h2.54v1.23l.13.06c.11-.13.21-.28.33-.41a4,4,0,0,1,4.49-.82,2.69,2.69,0,0,1,1.69,2.56c0,2.15,0,4.3.06,6.45v1H89.9v-.57c0-2,0-4-.08-6a2.1,2.1,0,0,0-.29-1c-.53-1-2.13-.9-2.93.07A3.25,3.25,0,0,0,86,41.12c0,1.6,0,3.2,0,4.81Z"></path><path class="cls-2" d="M77.88,36.43h2.65V46.51H77.88Z"></path><path class="cls-2" d="M80.53,32.54V35H77.88V32.54Z"></path><polygon class="cls-3" points="32.12 22.75 32.12 33.68 21.87 33.68 21.87 24.47 32.12 22.75"></polygon><polygon class="cls-4" points="32.12 34.93 32.12 46.27 21.87 44.3 21.87 34.93 32.12 34.93"></polygon><polygon class="cls-5" points="33.72 33.68 49.78 33.68 49.78 19.12 33.72 22.25 33.72 33.68"></polygon><polygon class="cls-6" points="33.72 34.93 49.93 34.93 49.93 49.5 33.72 46.45 33.72 34.93"></polygon></svg>